<svg width="31" height="33" viewBox="0 0 31 33" fill="none" xmlns="http://www.w3.org/2000/svg">
<mask id="path-1-outside-1_52_14" maskUnits="userSpaceOnUse" x="0" y="0" width="31" height="33" fill="black">
<rect fill="white" width="31" height="33"/>
<path d="M14.536 25.448C12.744 25.448 11.0907 25.16 9.576 24.584C8.06133 24.008 6.73867 23.1973 5.608 22.152C4.49867 21.0853 3.63467 19.848 3.016 18.44C2.39733 17.032 2.088 15.4853 2.088 13.8C2.088 12.1147 2.39733 10.568 3.016 9.16C3.63467 7.752 4.49867 6.52533 5.608 5.48C6.73867 4.41333 8.06133 3.592 9.576 3.016C11.0907 2.44 12.744 2.152 14.536 2.152C16.3493 2.152 18.0027 2.44 19.496 3.016C21.0107 3.592 22.3227 4.40267 23.432 5.448C24.5413 6.49333 25.4053 7.73067 26.024 9.16C26.664 10.568 26.984 12.1147 26.984 13.8C26.984 15.4853 26.664 17.0427 26.024 18.472C25.4053 19.88 24.5413 21.1067 23.432 22.152C22.3227 23.1973 21.0107 24.008 19.496 24.584C18.0027 25.16 16.3493 25.448 14.536 25.448ZM21.864 30.408C20.904 30.408 20.008 30.3013 19.176 30.088C18.344 29.896 17.5227 29.576 16.712 29.128C15.9227 28.68 15.0907 28.072 14.216 27.304C13.3627 26.536 12.4027 25.5867 11.336 24.456L17.96 22.792C18.4933 23.5813 18.9733 24.2 19.4 24.648C19.8267 25.096 20.2427 25.416 20.648 25.608C21.0747 25.8 21.5227 25.896 21.992 25.896C23.2293 25.896 24.36 25.3733 25.384 24.328L28.136 27.592C26.5787 29.4693 24.488 30.408 21.864 30.408ZM14.536 20.2C15.3893 20.2 16.1787 20.0507 16.904 19.752C17.6507 19.4533 18.2907 19.0267 18.824 18.472C19.3787 17.896 19.8053 17.2133 20.104 16.424C20.424 15.6347 20.584 14.76 20.584 13.8C20.584 12.8187 20.424 11.944 20.104 11.176C19.8053 10.3867 19.3787 9.71467 18.824 9.16C18.2907 8.584 17.6507 8.14667 16.904 7.848C16.1787 7.54933 15.3893 7.4 14.536 7.4C13.6827 7.4 12.8827 7.54933 12.136 7.848C11.4107 8.14667 10.7707 8.584 10.216 9.16C9.68267 9.71467 9.256 10.3867 8.936 11.176C8.63733 11.944 8.488 12.8187 8.488 13.8C8.488 14.76 8.63733 15.6347 8.936 16.424C9.256 17.2133 9.68267 17.896 10.216 18.472C10.7707 19.0267 11.4107 19.4533 12.136 19.752C12.8827 20.0507 13.6827 20.2 14.536 20.2Z"/>
</mask>
<path d="M14.536 25.448C12.744 25.448 11.0907 25.16 9.576 24.584C8.06133 24.008 6.73867 23.1973 5.608 22.152C4.49867 21.0853 3.63467 19.848 3.016 18.44C2.39733 17.032 2.088 15.4853 2.088 13.8C2.088 12.1147 2.39733 10.568 3.016 9.16C3.63467 7.752 4.49867 6.52533 5.608 5.48C6.73867 4.41333 8.06133 3.592 9.576 3.016C11.0907 2.44 12.744 2.152 14.536 2.152C16.3493 2.152 18.0027 2.44 19.496 3.016C21.0107 3.592 22.3227 4.40267 23.432 5.448C24.5413 6.49333 25.4053 7.73067 26.024 9.16C26.664 10.568 26.984 12.1147 26.984 13.8C26.984 15.4853 26.664 17.0427 26.024 18.472C25.4053 19.88 24.5413 21.1067 23.432 22.152C22.3227 23.1973 21.0107 24.008 19.496 24.584C18.0027 25.16 16.3493 25.448 14.536 25.448ZM21.864 30.408C20.904 30.408 20.008 30.3013 19.176 30.088C18.344 29.896 17.5227 29.576 16.712 29.128C15.9227 28.68 15.0907 28.072 14.216 27.304C13.3627 26.536 12.4027 25.5867 11.336 24.456L17.96 22.792C18.4933 23.5813 18.9733 24.2 19.4 24.648C19.8267 25.096 20.2427 25.416 20.648 25.608C21.0747 25.8 21.5227 25.896 21.992 25.896C23.2293 25.896 24.36 25.3733 25.384 24.328L28.136 27.592C26.5787 29.4693 24.488 30.408 21.864 30.408ZM14.536 20.2C15.3893 20.2 16.1787 20.0507 16.904 19.752C17.6507 19.4533 18.2907 19.0267 18.824 18.472C19.3787 17.896 19.8053 17.2133 20.104 16.424C20.424 15.6347 20.584 14.76 20.584 13.8C20.584 12.8187 20.424 11.944 20.104 11.176C19.8053 10.3867 19.3787 9.71467 18.824 9.16C18.2907 8.584 17.6507 8.14667 16.904 7.848C16.1787 7.54933 15.3893 7.4 14.536 7.4C13.6827 7.4 12.8827 7.54933 12.136 7.848C11.4107 8.14667 10.7707 8.584 10.216 9.16C9.68267 9.71467 9.256 10.3867 8.936 11.176C8.63733 11.944 8.488 12.8187 8.488 13.8C8.488 14.76 8.63733 15.6347 8.936 16.424C9.256 17.2133 9.68267 17.896 10.216 18.472C10.7707 19.0267 11.4107 19.4533 12.136 19.752C12.8827 20.0507 13.6827 20.2 14.536 20.2Z" fill="#F5A623"/>
<path d="M9.576 24.584L8.8651 26.4534L8.8651 26.4534L9.576 24.584ZM5.608 22.152L4.22178 23.5937L4.2359 23.6072L4.25029 23.6205L5.608 22.152ZM3.016 18.44L1.18496 19.2445L1.18496 19.2445L3.016 18.44ZM3.016 9.16L1.18496 8.35545L1.18496 8.35545L3.016 9.16ZM5.608 5.48L6.9796 6.93558L6.98044 6.93479L5.608 5.48ZM9.576 3.016L8.8651 1.14661L8.8651 1.14661L9.576 3.016ZM19.496 3.016L18.7762 4.88202L18.7851 4.88539L19.496 3.016ZM23.432 5.448L22.0604 6.90358L22.0604 6.90358L23.432 5.448ZM26.024 9.16L24.1886 9.95445L24.1958 9.97109L24.2033 9.9876L26.024 9.16ZM26.024 18.472L24.1986 17.6547L24.193 17.6675L26.024 18.472ZM23.432 22.152L24.8036 23.6076L24.8036 23.6076L23.432 22.152ZM19.496 24.584L18.7851 22.7146L18.7763 22.718L19.496 24.584ZM19.176 30.088L19.6728 28.1507L19.6493 28.1447L19.6257 28.1392L19.176 30.088ZM16.712 29.128L15.7248 30.8674L15.7347 30.873L15.7446 30.8785L16.712 29.128ZM14.216 27.304L12.8781 28.7906L12.8872 28.7988L12.8964 28.8069L14.216 27.304ZM11.336 24.456L10.8487 22.5163L7.54053 23.3473L9.88121 25.8284L11.336 24.456ZM17.96 22.792L19.6172 21.6723L18.8323 20.5107L17.4727 20.8523L17.96 22.792ZM19.4 24.648L20.8483 23.2687L20.8483 23.2687L19.4 24.648ZM20.648 25.608L19.7918 27.4155L19.8095 27.4238L19.8273 27.4318L20.648 25.608ZM25.384 24.328L26.913 23.0388L25.4949 21.3568L23.9553 22.9284L25.384 24.328ZM28.136 27.592L29.6753 28.8689L30.7432 27.5816L29.665 26.3028L28.136 27.592ZM16.904 19.752L16.1612 17.895L16.1518 17.8988L16.1425 17.9026L16.904 19.752ZM18.824 18.472L17.3834 17.0847L17.3823 17.0858L18.824 18.472ZM20.104 16.424L18.2505 15.6726L18.2417 15.6943L18.2334 15.7162L20.104 16.424ZM20.104 11.176L18.2334 11.8838L18.2451 11.9147L18.2578 11.9452L20.104 11.176ZM18.824 9.16L17.3565 10.5188L17.3826 10.547L17.4098 10.5742L18.824 9.16ZM16.904 7.848L16.1425 9.69736L16.1518 9.7012L16.1612 9.70495L16.904 7.848ZM12.136 7.848L11.3932 5.99105L11.3838 5.9948L11.3745 5.99864L12.136 7.848ZM10.216 9.16L8.77536 7.77271L8.77433 7.77378L10.216 9.16ZM8.936 11.176L7.08252 10.4246L7.07716 10.4378L7.07199 10.4511L8.936 11.176ZM8.936 16.424L7.06543 17.1318L7.07372 17.1537L7.08252 17.1754L8.936 16.424ZM10.216 18.472L8.74848 19.8308L8.7746 19.859L8.80179 19.8862L10.216 18.472ZM12.136 19.752L11.3745 21.6014L11.3838 21.6052L11.3932 21.609L12.136 19.752ZM14.536 23.448C12.9613 23.448 11.5517 23.1956 10.2869 22.7146L8.8651 26.4534C10.6296 27.1244 12.5267 27.448 14.536 27.448V23.448ZM10.2869 22.7146C8.99879 22.2248 7.89868 21.546 6.96571 20.6835L4.25029 23.6205C5.57866 24.8487 7.12388 25.7912 8.8651 26.4534L10.2869 22.7146ZM6.99422 20.7103C6.07325 19.8248 5.36044 18.8039 4.84704 17.6355L1.18496 19.2445C1.9089 20.8921 2.92408 22.3459 4.22178 23.5937L6.99422 20.7103ZM4.84704 17.6355C4.35008 16.5045 4.088 15.2351 4.088 13.8H0.0880001C0.0880001 15.7356 0.444583 17.5595 1.18496 19.2445L4.84704 17.6355ZM4.088 13.8C4.088 12.3649 4.35008 11.0955 4.84704 9.96455L1.18496 8.35545C0.444583 10.0405 0.0880001 11.8644 0.0880001 13.8H4.088ZM4.84704 9.96455C5.35877 8.79991 6.06733 7.79522 6.9796 6.93558L4.2364 4.02442C2.93001 5.25544 1.91056 6.70409 1.18496 8.35545L4.84704 9.96455ZM6.98044 6.93479C7.91186 6.05609 9.0072 5.37203 10.2869 4.88539L8.8651 1.14661C7.11546 1.81196 5.56547 2.77058 4.23556 4.02521L6.98044 6.93479ZM10.2869 4.88539C11.5517 4.40441 12.9613 4.152 14.536 4.152V0.151999C12.5267 0.151999 10.6296 0.475582 8.8651 1.14661L10.2869 4.88539ZM14.536 4.152C16.1357 4.152 17.541 4.40554 18.7763 4.882L20.2157 1.15C18.4643 0.474453 16.563 0.151999 14.536 0.151999V4.152ZM18.7851 4.88539C20.0702 5.37409 21.1539 6.04935 22.0604 6.90358L24.8036 3.99242C23.4915 2.75598 21.9511 1.8099 20.2069 1.14661L18.7851 4.88539ZM22.0604 6.90358C22.9674 7.75824 23.6755 8.76915 24.1886 9.95445L27.8594 8.36555C27.1351 6.69218 26.1153 5.22842 24.8036 3.99242L22.0604 6.90358ZM24.2033 9.9876C24.7149 11.1131 24.984 12.3743 24.984 13.8H28.984C28.984 11.8551 28.6131 10.0229 27.8447 8.33239L24.2033 9.9876ZM24.984 13.8C24.984 15.2254 24.7149 16.5016 24.1986 17.6547L27.8494 19.2893C28.6131 17.5837 28.984 15.7453 28.984 13.8H24.984ZM24.193 17.6675C23.6812 18.8321 22.9727 19.8368 22.0604 20.6964L24.8036 23.6076C26.11 22.3766 27.1294 20.9279 27.855 19.2765L24.193 17.6675ZM22.0604 20.6964C21.1539 21.5506 20.0702 22.2259 18.7851 22.7146L20.2069 26.4534C21.9511 25.7901 23.4915 24.844 24.8036 23.6076L22.0604 20.6964ZM18.7763 22.718C17.541 23.1945 16.1357 23.448 14.536 23.448V27.448C16.563 27.448 18.4643 27.1255 20.2157 26.45L18.7763 22.718ZM21.864 28.408C21.0522 28.408 20.3247 28.3178 19.6728 28.1507L18.6793 32.0253C19.6913 32.2848 20.7558 32.408 21.864 32.408V28.408ZM19.6257 28.1392C18.9893 27.9923 18.3412 27.7433 17.6794 27.3775L15.7446 30.8785C16.7041 31.4087 17.6987 31.7997 18.7263 32.0368L19.6257 28.1392ZM17.6992 27.3886C17.0562 27.0237 16.335 26.503 15.5356 25.8011L12.8964 28.8069C13.8464 29.641 14.7891 30.3363 15.7248 30.8674L17.6992 27.3886ZM15.5539 25.8174C14.7524 25.096 13.8322 24.1874 12.7908 23.0836L9.88121 25.8284C10.9732 26.9859 11.973 27.976 12.8781 28.7906L15.5539 25.8174ZM11.8233 26.3957L18.4473 24.7317L17.4727 20.8523L10.8487 22.5163L11.8233 26.3957ZM16.3028 23.9117C16.869 24.7497 17.419 25.468 17.9517 26.0273L20.8483 23.2687C20.5276 22.932 20.1177 22.413 19.6172 21.6723L16.3028 23.9117ZM17.9517 26.0273C18.488 26.5904 19.0977 27.0867 19.7918 27.4155L21.5042 23.8005C21.3876 23.7453 21.1654 23.6016 20.8483 23.2687L17.9517 26.0273ZM19.8273 27.4318C20.5128 27.7403 21.2406 27.896 21.992 27.896V23.896C21.8047 23.896 21.6365 23.8597 21.4687 23.7842L19.8273 27.4318ZM21.992 27.896C23.8643 27.896 25.4866 27.0813 26.8127 25.7276L23.9553 22.9284C23.2334 23.6654 22.5943 23.896 21.992 23.896V27.896ZM23.855 25.6172L26.607 28.8812L29.665 26.3028L26.913 23.0388L23.855 25.6172ZM26.5967 26.3151C25.451 27.6962 23.9443 28.408 21.864 28.408V32.408C25.0317 32.408 27.7063 31.2425 29.6753 28.8689L26.5967 26.3151ZM14.536 22.2C15.6275 22.2 16.6781 22.0079 17.6655 21.6014L16.1425 17.9026C15.6792 18.0934 15.1512 18.2 14.536 18.2V22.2ZM17.6468 21.609C18.645 21.2097 19.5266 20.6269 20.2657 19.8582L17.3823 17.0858C17.0548 17.4264 16.6563 17.697 16.1612 17.895L17.6468 21.609ZM20.2646 19.8593C21.0174 19.0775 21.5855 18.1601 21.9746 17.1318L18.2334 15.7162C18.0252 16.2666 17.7399 16.7145 17.3834 17.0847L20.2646 19.8593ZM21.9575 17.1754C22.3858 16.1189 22.584 14.985 22.584 13.8H18.584C18.584 14.535 18.4622 15.1504 18.2505 15.6726L21.9575 17.1754ZM22.584 13.8C22.584 12.6012 22.3882 11.4581 21.9502 10.4068L18.2578 11.9452C18.4598 12.4299 18.584 13.0361 18.584 13.8H22.584ZM21.9746 10.4682C21.5833 9.43415 21.0082 8.51581 20.2382 7.74579L17.4098 10.5742C17.7491 10.9135 18.0274 11.3392 18.2334 11.8838L21.9746 10.4682ZM20.2915 7.80118C19.5515 7.002 18.662 6.39715 17.6468 5.99105L16.1612 9.70495C16.6393 9.89618 17.0298 10.166 17.3565 10.5188L20.2915 7.80118ZM17.6655 5.99864C16.6781 5.59208 15.6275 5.4 14.536 5.4V9.4C15.1512 9.4 15.6792 9.50659 16.1425 9.69736L17.6655 5.99864ZM14.536 5.4C13.444 5.4 12.3903 5.59221 11.3932 5.99105L12.8788 9.70495C13.375 9.50646 13.9214 9.4 14.536 9.4V5.4ZM11.3745 5.99864C10.3882 6.40477 9.51817 7.00134 8.77536 7.77272L11.6566 10.5473C12.0232 10.1667 12.4331 9.88856 12.8975 9.69736L11.3745 5.99864ZM8.77433 7.77378C8.04666 8.53057 7.48792 9.4246 7.08252 10.4246L10.7895 11.9274C11.0241 11.3487 11.3187 10.8988 11.6577 10.5462L8.77433 7.77378ZM7.07199 10.4511C6.66808 11.4897 6.488 12.617 6.488 13.8H10.488C10.488 13.0204 10.6066 12.3983 10.8 11.9009L7.07199 10.4511ZM6.488 13.8C6.488 14.9689 6.67026 16.0874 7.06543 17.1318L10.8066 15.7162C10.6044 15.1819 10.488 14.5511 10.488 13.8H6.488ZM7.08252 17.1754C7.48564 18.1698 8.03737 19.0628 8.74848 19.8308L11.6835 17.1132C11.328 16.7292 11.0264 16.2569 10.7895 15.6726L7.08252 17.1754ZM8.80179 19.8862C9.54317 20.6276 10.405 21.2022 11.3745 21.6014L12.8975 17.9026C12.4163 17.7045 11.9982 17.4257 11.6302 17.0578L8.80179 19.8862ZM11.3932 21.609C12.3903 22.0078 13.444 22.2 14.536 22.2V18.2C13.9214 18.2 13.375 18.0935 12.8788 17.895L11.3932 21.609Z" fill="#D1D1D1" mask="url(#path-1-outside-1_52_14)"/>
</svg>
