<svg width="57" height="59" viewBox="0 0 57 59" fill="none" xmlns="http://www.w3.org/2000/svg">
<g filter="url(#filter0_d_52_14)">
<mask id="path-1-outside-1_52_14" maskUnits="userSpaceOnUse" x="14" y="10" width="31" height="33" fill="black">
<rect fill="white" x="14" y="10" width="31" height="33"/>
<path d="M28.536 35.448C26.744 35.448 25.0907 35.16 23.576 34.584C22.0613 34.008 20.7387 33.1973 19.608 32.152C18.4987 31.0853 17.6347 29.848 17.016 28.44C16.3973 27.032 16.088 25.4853 16.088 23.8C16.088 22.1147 16.3973 20.568 17.016 19.16C17.6347 17.752 18.4987 16.5253 19.608 15.48C20.7387 14.4133 22.0613 13.592 23.576 13.016C25.0907 12.44 26.744 12.152 28.536 12.152C30.3493 12.152 32.0027 12.44 33.496 13.016C35.0107 13.592 36.3227 14.4027 37.432 15.448C38.5413 16.4933 39.4053 17.7307 40.024 19.16C40.664 20.568 40.984 22.1147 40.984 23.8C40.984 25.4853 40.664 27.0427 40.024 28.472C39.4053 29.88 38.5413 31.1067 37.432 32.152C36.3227 33.1973 35.0107 34.008 33.496 34.584C32.0027 35.16 30.3493 35.448 28.536 35.448ZM35.864 40.408C34.904 40.408 34.008 40.3013 33.176 40.088C32.344 39.896 31.5227 39.576 30.712 39.128C29.9227 38.68 29.0907 38.072 28.216 37.304C27.3627 36.536 26.4027 35.5867 25.336 34.456L31.96 32.792C32.4933 33.5813 32.9733 34.2 33.4 34.648C33.8267 35.096 34.2427 35.416 34.648 35.608C35.0747 35.8 35.5227 35.896 35.992 35.896C37.2293 35.896 38.36 35.3733 39.384 34.328L42.136 37.592C40.5787 39.4693 38.488 40.408 35.864 40.408ZM28.536 30.2C29.3893 30.2 30.1787 30.0507 30.904 29.752C31.6507 29.4533 32.2907 29.0267 32.824 28.472C33.3787 27.896 33.8053 27.2133 34.104 26.424C34.424 25.6347 34.584 24.76 34.584 23.8C34.584 22.8187 34.424 21.944 34.104 21.176C33.8053 20.3867 33.3787 19.7147 32.824 19.16C32.2907 18.584 31.6507 18.1467 30.904 17.848C30.1787 17.5493 29.3893 17.4 28.536 17.4C27.6827 17.4 26.8827 17.5493 26.136 17.848C25.4107 18.1467 24.7707 18.584 24.216 19.16C23.6827 19.7147 23.256 20.3867 22.936 21.176C22.6373 21.944 22.488 22.8187 22.488 23.8C22.488 24.76 22.6373 25.6347 22.936 26.424C23.256 27.2133 23.6827 27.896 24.216 28.472C24.7707 29.0267 25.4107 29.4533 26.136 29.752C26.8827 30.0507 27.6827 30.2 28.536 30.2Z"/>
</mask>
<path d="M28.536 35.448C26.744 35.448 25.0907 35.16 23.576 34.584C22.0613 34.008 20.7387 33.1973 19.608 32.152C18.4987 31.0853 17.6347 29.848 17.016 28.44C16.3973 27.032 16.088 25.4853 16.088 23.8C16.088 22.1147 16.3973 20.568 17.016 19.16C17.6347 17.752 18.4987 16.5253 19.608 15.48C20.7387 14.4133 22.0613 13.592 23.576 13.016C25.0907 12.44 26.744 12.152 28.536 12.152C30.3493 12.152 32.0027 12.44 33.496 13.016C35.0107 13.592 36.3227 14.4027 37.432 15.448C38.5413 16.4933 39.4053 17.7307 40.024 19.16C40.664 20.568 40.984 22.1147 40.984 23.8C40.984 25.4853 40.664 27.0427 40.024 28.472C39.4053 29.88 38.5413 31.1067 37.432 32.152C36.3227 33.1973 35.0107 34.008 33.496 34.584C32.0027 35.16 30.3493 35.448 28.536 35.448ZM35.864 40.408C34.904 40.408 34.008 40.3013 33.176 40.088C32.344 39.896 31.5227 39.576 30.712 39.128C29.9227 38.68 29.0907 38.072 28.216 37.304C27.3627 36.536 26.4027 35.5867 25.336 34.456L31.96 32.792C32.4933 33.5813 32.9733 34.2 33.4 34.648C33.8267 35.096 34.2427 35.416 34.648 35.608C35.0747 35.8 35.5227 35.896 35.992 35.896C37.2293 35.896 38.36 35.3733 39.384 34.328L42.136 37.592C40.5787 39.4693 38.488 40.408 35.864 40.408ZM28.536 30.2C29.3893 30.2 30.1787 30.0507 30.904 29.752C31.6507 29.4533 32.2907 29.0267 32.824 28.472C33.3787 27.896 33.8053 27.2133 34.104 26.424C34.424 25.6347 34.584 24.76 34.584 23.8C34.584 22.8187 34.424 21.944 34.104 21.176C33.8053 20.3867 33.3787 19.7147 32.824 19.16C32.2907 18.584 31.6507 18.1467 30.904 17.848C30.1787 17.5493 29.3893 17.4 28.536 17.4C27.6827 17.4 26.8827 17.5493 26.136 17.848C25.4107 18.1467 24.7707 18.584 24.216 19.16C23.6827 19.7147 23.256 20.3867 22.936 21.176C22.6373 21.944 22.488 22.8187 22.488 23.8C22.488 24.76 22.6373 25.6347 22.936 26.424C23.256 27.2133 23.6827 27.896 24.216 28.472C24.7707 29.0267 25.4107 29.4533 26.136 29.752C26.8827 30.0507 27.6827 30.2 28.536 30.2Z" fill="#F5A623"/>
<path d="M23.576 34.584L22.8651 36.4534L22.8651 36.4534L23.576 34.584ZM19.608 32.152L18.2218 33.5937L18.2359 33.6072L18.2503 33.6205L19.608 32.152ZM17.016 28.44L15.185 29.2445L15.185 29.2445L17.016 28.44ZM17.016 19.16L15.185 18.3555L15.185 18.3555L17.016 19.16ZM19.608 15.48L20.9796 16.9356L20.9804 16.9348L19.608 15.48ZM23.576 13.016L22.8651 11.1466L22.8651 11.1466L23.576 13.016ZM33.496 13.016L32.7762 14.882L32.7851 14.8854L33.496 13.016ZM37.432 15.448L36.0604 16.9036L36.0604 16.9036L37.432 15.448ZM40.024 19.16L38.1886 19.9544L38.1958 19.9711L38.2033 19.9876L40.024 19.16ZM40.024 28.472L38.1986 27.6547L38.193 27.6675L40.024 28.472ZM37.432 32.152L38.8036 33.6076L38.8036 33.6076L37.432 32.152ZM33.496 34.584L32.7851 32.7146L32.7763 32.718L33.496 34.584ZM33.176 40.088L33.6728 38.1507L33.6493 38.1447L33.6257 38.1392L33.176 40.088ZM30.712 39.128L29.7248 40.8674L29.7347 40.873L29.7446 40.8785L30.712 39.128ZM28.216 37.304L26.8781 38.7906L26.8872 38.7988L26.8964 38.8069L28.216 37.304ZM25.336 34.456L24.8487 32.5163L21.5405 33.3473L23.8812 35.8284L25.336 34.456ZM31.96 32.792L33.6172 31.6723L32.8323 30.5107L31.4727 30.8523L31.96 32.792ZM33.4 34.648L34.8483 33.2687L34.8483 33.2687L33.4 34.648ZM34.648 35.608L33.7918 37.4155L33.8095 37.4238L33.8273 37.4318L34.648 35.608ZM39.384 34.328L40.913 33.0388L39.4949 31.3568L37.9553 32.9284L39.384 34.328ZM42.136 37.592L43.6753 38.8689L44.7432 37.5816L43.665 36.3028L42.136 37.592ZM30.904 29.752L30.1612 27.895L30.1518 27.8988L30.1425 27.9026L30.904 29.752ZM32.824 28.472L31.3834 27.0847L31.3823 27.0858L32.824 28.472ZM34.104 26.424L32.2505 25.6726L32.2417 25.6943L32.2334 25.7162L34.104 26.424ZM34.104 21.176L32.2334 21.8838L32.2451 21.9147L32.2578 21.9452L34.104 21.176ZM32.824 19.16L31.3565 20.5188L31.3826 20.547L31.4098 20.5742L32.824 19.16ZM30.904 17.848L30.1425 19.6974L30.1518 19.7012L30.1612 19.705L30.904 17.848ZM26.136 17.848L25.3932 15.991L25.3838 15.9948L25.3745 15.9986L26.136 17.848ZM24.216 19.16L22.7754 17.7727L22.7743 17.7738L24.216 19.16ZM22.936 21.176L21.0825 20.4246L21.0772 20.4378L21.072 20.4511L22.936 21.176ZM22.936 26.424L21.0654 27.1318L21.0737 27.1537L21.0825 27.1754L22.936 26.424ZM24.216 28.472L22.7485 29.8308L22.7746 29.859L22.8018 29.8862L24.216 28.472ZM26.136 29.752L25.3745 31.6014L25.3838 31.6052L25.3932 31.609L26.136 29.752ZM28.536 33.448C26.9613 33.448 25.5517 33.1956 24.2869 32.7146L22.8651 36.4534C24.6296 37.1244 26.5267 37.448 28.536 37.448V33.448ZM24.2869 32.7146C22.9988 32.2248 21.8987 31.546 20.9657 30.6835L18.2503 33.6205C19.5787 34.8487 21.1239 35.7912 22.8651 36.4534L24.2869 32.7146ZM20.9942 30.7103C20.0733 29.8248 19.3604 28.8039 18.847 27.6355L15.185 29.2445C15.9089 30.8921 16.9241 32.3459 18.2218 33.5937L20.9942 30.7103ZM18.847 27.6355C18.3501 26.5045 18.088 25.2351 18.088 23.8H14.088C14.088 25.7356 14.4446 27.5595 15.185 29.2445L18.847 27.6355ZM18.088 23.8C18.088 22.3649 18.3501 21.0955 18.847 19.9645L15.185 18.3555C14.4446 20.0405 14.088 21.8644 14.088 23.8H18.088ZM18.847 19.9645C19.3588 18.7999 20.0673 17.7952 20.9796 16.9356L18.2364 14.0244C16.93 15.2554 15.9106 16.7041 15.185 18.3555L18.847 19.9645ZM20.9804 16.9348C21.9119 16.0561 23.0072 15.372 24.2869 14.8854L22.8651 11.1466C21.1155 11.812 19.5655 12.7706 18.2356 14.0252L20.9804 16.9348ZM24.2869 14.8854C25.5517 14.4044 26.9613 14.152 28.536 14.152V10.152C26.5267 10.152 24.6296 10.4756 22.8651 11.1466L24.2869 14.8854ZM28.536 14.152C30.1357 14.152 31.541 14.4055 32.7763 14.882L34.2157 11.15C32.4643 10.4745 30.563 10.152 28.536 10.152V14.152ZM32.7851 14.8854C34.0702 15.3741 35.1539 16.0494 36.0604 16.9036L38.8036 13.9924C37.4915 12.756 35.9511 11.8099 34.2069 11.1466L32.7851 14.8854ZM36.0604 16.9036C36.9674 17.7582 37.6755 18.7692 38.1886 19.9544L41.8594 18.3656C41.1351 16.6922 40.1153 15.2284 38.8036 13.9924L36.0604 16.9036ZM38.2033 19.9876C38.7149 21.1131 38.984 22.3743 38.984 23.8H42.984C42.984 21.8551 42.6131 20.0229 41.8447 18.3324L38.2033 19.9876ZM38.984 23.8C38.984 25.2254 38.7149 26.5016 38.1986 27.6547L41.8494 29.2893C42.6131 27.5837 42.984 25.7453 42.984 23.8H38.984ZM38.193 27.6675C37.6812 28.8321 36.9727 29.8368 36.0604 30.6964L38.8036 33.6076C40.11 32.3766 41.1294 30.9279 41.855 29.2765L38.193 27.6675ZM36.0604 30.6964C35.1539 31.5506 34.0702 32.2259 32.7851 32.7146L34.2069 36.4534C35.9511 35.7901 37.4915 34.844 38.8036 33.6076L36.0604 30.6964ZM32.7763 32.718C31.541 33.1945 30.1357 33.448 28.536 33.448V37.448C30.563 37.448 32.4643 37.1255 34.2157 36.45L32.7763 32.718ZM35.864 38.408C35.0522 38.408 34.3247 38.3178 33.6728 38.1507L32.6793 42.0253C33.6913 42.2848 34.7558 42.408 35.864 42.408V38.408ZM33.6257 38.1392C32.9893 37.9923 32.3412 37.7433 31.6794 37.3775L29.7446 40.8785C30.7041 41.4087 31.6987 41.7997 32.7263 42.0368L33.6257 38.1392ZM31.6992 37.3886C31.0562 37.0237 30.335 36.503 29.5356 35.8011L26.8964 38.8069C27.8464 39.641 28.7891 40.3363 29.7248 40.8674L31.6992 37.3886ZM29.5539 35.8174C28.7524 35.096 27.8322 34.1874 26.7908 33.0836L23.8812 35.8284C24.9732 36.9859 25.973 37.976 26.8781 38.7906L29.5539 35.8174ZM25.8233 36.3957L32.4473 34.7317L31.4727 30.8523L24.8487 32.5163L25.8233 36.3957ZM30.3028 33.9117C30.869 34.7497 31.419 35.468 31.9517 36.0273L34.8483 33.2687C34.5276 32.932 34.1177 32.413 33.6172 31.6723L30.3028 33.9117ZM31.9517 36.0273C32.488 36.5904 33.0977 37.0867 33.7918 37.4155L35.5042 33.8005C35.3876 33.7453 35.1654 33.6016 34.8483 33.2687L31.9517 36.0273ZM33.8273 37.4318C34.5128 37.7403 35.2406 37.896 35.992 37.896V33.896C35.8047 33.896 35.6365 33.8597 35.4687 33.7842L33.8273 37.4318ZM35.992 37.896C37.8643 37.896 39.4866 37.0813 40.8127 35.7276L37.9553 32.9284C37.2334 33.6654 36.5943 33.896 35.992 33.896V37.896ZM37.855 35.6172L40.607 38.8812L43.665 36.3028L40.913 33.0388L37.855 35.6172ZM40.5967 36.3151C39.451 37.6962 37.9443 38.408 35.864 38.408V42.408C39.0317 42.408 41.7063 41.2425 43.6753 38.8689L40.5967 36.3151ZM28.536 32.2C29.6275 32.2 30.6781 32.0079 31.6655 31.6014L30.1425 27.9026C29.6792 28.0934 29.1512 28.2 28.536 28.2V32.2ZM31.6468 31.609C32.645 31.2097 33.5266 30.6269 34.2657 29.8582L31.3823 27.0858C31.0548 27.4264 30.6563 27.697 30.1612 27.895L31.6468 31.609ZM34.2646 29.8593C35.0174 29.0775 35.5855 28.1601 35.9746 27.1318L32.2334 25.7162C32.0252 26.2666 31.7399 26.7145 31.3834 27.0847L34.2646 29.8593ZM35.9575 27.1754C36.3858 26.1189 36.584 24.985 36.584 23.8H32.584C32.584 24.535 32.4622 25.1504 32.2505 25.6726L35.9575 27.1754ZM36.584 23.8C36.584 22.6012 36.3882 21.4581 35.9502 20.4068L32.2578 21.9452C32.4598 22.4299 32.584 23.0361 32.584 23.8H36.584ZM35.9746 20.4682C35.5833 19.4341 35.0082 18.5158 34.2382 17.7458L31.4098 20.5742C31.7491 20.9135 32.0274 21.3392 32.2334 21.8838L35.9746 20.4682ZM34.2915 17.8012C33.5515 17.002 32.662 16.3972 31.6468 15.991L30.1612 19.705C30.6393 19.8962 31.0298 20.166 31.3565 20.5188L34.2915 17.8012ZM31.6655 15.9986C30.6781 15.5921 29.6275 15.4 28.536 15.4V19.4C29.1512 19.4 29.6792 19.5066 30.1425 19.6974L31.6655 15.9986ZM28.536 15.4C27.444 15.4 26.3903 15.5922 25.3932 15.991L26.8788 19.705C27.375 19.5065 27.9214 19.4 28.536 19.4V15.4ZM25.3745 15.9986C24.3882 16.4048 23.5182 17.0013 22.7754 17.7727L25.6566 20.5473C26.0232 20.1667 26.4331 19.8886 26.8975 19.6974L25.3745 15.9986ZM22.7743 17.7738C22.0467 18.5306 21.4879 19.4246 21.0825 20.4246L24.7895 21.9274C25.0241 21.3487 25.3187 20.8988 25.6577 20.5462L22.7743 17.7738ZM21.072 20.4511C20.6681 21.4897 20.488 22.617 20.488 23.8H24.488C24.488 23.0204 24.6066 22.3983 24.8 21.9009L21.072 20.4511ZM20.488 23.8C20.488 24.9689 20.6703 26.0874 21.0654 27.1318L24.8066 25.7162C24.6044 25.1819 24.488 24.5511 24.488 23.8H20.488ZM21.0825 27.1754C21.4856 28.1698 22.0374 29.0628 22.7485 29.8308L25.6835 27.1132C25.328 26.7292 25.0264 26.2569 24.7895 25.6726L21.0825 27.1754ZM22.8018 29.8862C23.5432 30.6276 24.405 31.2022 25.3745 31.6014L26.8975 27.9026C26.4163 27.7045 25.9982 27.4257 25.6302 27.0578L22.8018 29.8862ZM25.3932 31.609C26.3903 32.0078 27.444 32.2 28.536 32.2V28.2C27.9214 28.2 27.375 28.0935 26.8788 27.895L25.3932 31.609Z" fill="#D1D1D1" mask="url(#path-1-outside-1_52_14)"/>
</g>
<defs>
<filter id="filter0_d_52_14" x="0.0879974" y="0.151999" width="56.6552" height="58.256" filterUnits="userSpaceOnUse" color-interpolation-filters="sRGB">
<feFlood flood-opacity="0" result="BackgroundImageFix"/>
<feColorMatrix in="SourceAlpha" type="matrix" values="0 0 0 0 0 0 0 0 0 0 0 0 0 0 0 0 0 0 127 0" result="hardAlpha"/>
<feMorphology radius="8" operator="dilate" in="SourceAlpha" result="effect1_dropShadow_52_14"/>
<feOffset dx="-1" dy="3"/>
<feGaussianBlur stdDeviation="2.5"/>
<feComposite in2="hardAlpha" operator="out"/>
<feColorMatrix type="matrix" values="0 0 0 0 0.9775 0 0 0 0 0.744301 0 0 0 0 0.357602 0 0 0 0.91 0"/>
<feBlend mode="normal" in2="BackgroundImageFix" result="effect1_dropShadow_52_14"/>
<feBlend mode="normal" in="SourceGraphic" in2="effect1_dropShadow_52_14" result="shape"/>
</filter>
</defs>
</svg>
